<svg xmlns="http://www.w3.org/2000/svg" viewBox="0 0 1000 1000">
<path d="M429 138.5C469.1 83 551.2 83 591.2 138.5L683.7 266.8C689.2 274.4 696.9 280 705.6 282.9L854.4 332.4C919.1 354 943.9 432.6 904.5 487.9L812.8 616.7C807.3 624.4 804.4 633.6 804.3 643.1L803.8 802C803.6 870.1 737.9 919.4 672.7 898.1L523.5 849.5C514.8 846.6 505.5 846.6 496.8 849.5L347.6 898.1C282.4 919.4 216.7 870.1 216.4 802L216 643.1C215.9 633.6 212.9 624.4 207.5 616.7L115.8 487.9C76.4 432.6 101.2 354 165.9 332.4L314.7 282.9C323.4 280 331.1 274.4 336.6 266.8L429 138.5Z"/>
</svg>
